ModelForces																												
version=1																												
nRows=30																												
nColumns=29																												
inDegrees=no																												
																												
This file contains the forces exerted on a model during a simulation.																												
																												
"A force is a generalized force, meaning that it can be either a force (N) or a torque (Nm)."																												
																												
"Units are S.I. units (second, meters, Newtons, ...)"																												
"If the header above contains a line with 'inDegrees', this indicates whether rotational values are in degrees (yes) or radians (no)."																												
																												
endheader																												
time	gastroc	glut_max	iliopsoas	recfem	hamstrings	soleus	tibant	vasti	ankle_angle_LimitForce	PotentialEnergy	knee_angle_LimitForce	PotentialEnergy	hip_flexion_LimitForce	PotentialEnergy	patellofemoral_knee_angle_con_mobility_F0	patellofemoral_knee_angle_con_mobility_F1	seatConstraint_ground_Fx	seatConstraint_ground_Fy	seatConstraint_ground_Fz	seatConstraint_ground_Mx	seatConstraint_ground_My	seatConstraint_ground_Mz	seatConstraint_femur_r_Fx	seatConstraint_femur_r_Fy	seatConstraint_femur_r_Fz	seatConstraint_femur_r_Mx	seatConstraint_femur_r_My	seatConstraint_femur_r_Mz
0.37017892	49.56312346	1176.31129	347.5317528	15.05708665	242.7016393	1200.894741	1047.899319	7824.212629	0	0	0	0	0	0	-107.8827579	107.8827579	114.0082346	99.82830414	0.00000235	0.76414066	-0.87267983	-76.54542895	-114.0082346	-99.82830414	-0.00000235	0	0	0
0.37469246	49.56312346	1220.913454	328.4073557	15.01516599	274.2663861	1199.733213	1066.904511	7973.518574	0	0	0	0	0	0	-109.9361183	109.9361183	108.2959793	90.01732588	0.00000197	0.68904197	-0.82895523	-71.83123024	-108.2959793	-90.01732588	-0.00000197	0	0	0
0.37541702	49.56312346	1228.060794	325.3494758	15.00846997	260.6471436	1199.553235	1069.960186	7997.632579	0	0	0	0	0	0	-110.267752	110.267752	109.8946856	87.81626673	0.00000181	0.6721938	-0.84119261	-72.24646541	-109.8946856	-87.81626673	-0.00000181	0	0	0
0.37765867	49.56312346	1250.150503	315.9047879	14.98823372	256.2956189	1199.007313	1079.420236	8072.469044	0	0	0	0	0	0	-111.2969662	111.2969662	109.8051377	82.27726629	0.00000152	0.62979516	-0.84050722	-71.18831141	-109.8051377	-82.27726629	-0.00000152	0	0	0
0.38324275	49.56312346	1305.079545	292.4976222	14.94072018	276.4735953	1197.716232	1103.014458	8260.263509	0	0	0	0	0	0	-113.8797179	113.8797179	105.5278852	69.5168555	0.00000094	0.53211983	-0.80776694	-66.66885553	-105.5278852	-69.5168555	-0.00000094	0	0	0
0.38412352	49.56312346	1313.724959	288.8235115	14.93307043	266.1308461	1197.521333	1106.738177	8290.044912	0	0	0	0	0	0	-114.2893023	114.2893023	106.6666446	67.03687463	0.00000078	0.51313664	-0.81648364	-66.7979115	-106.6666446	-67.03687463	-0.00000078	0	0	0
0.38691945	49.56312346	1341.142875	277.188815	14.90956678	265.6705057	1196.917449	1118.560406	8384.843883	0	0	0	0	0	0	-115.5930863	115.5930863	106.0010307	60.28833707	0.00000043	0.46147953	-0.81138874	-65.22411056	-106.0010307	-60.28833707	-0.00000043	0	0	0
0.39412207	49.56312346	1411.558161	247.9371507	14.85587186	296.967234	1195.460636	1149.010764	8630.674123	0	0	0	0	0	0	-118.9741228	118.9741228	100.2264243	44.13280348	-0.00000029	0.33781603	-0.76718693	-59.31843414	-100.2264243	-44.13280348	0.00000029	0	0	0
0.40132469	49.56312346	1482.990396	222.0170639	14.80196149	325.3649061	1194.140159	1179.426484	8878.45391	0	0	0	0	0	0	-122.3819753	122.3819753	95.29282348	28.11438153	-0.00000102	0.21520205	-0.72942264	-53.86787845	-95.29282348	-28.11438153	0.00000102	0	0	0
0.40852731	49.56312346	1575.391177	199.4393172	14.75713296	386.3974342	1192.923092	1209.08567	9122.310634	0	0	0	0	0	0	-125.7359825	125.7359825	85.14624309	13.00364898	-0.00000156	0.09953611	-0.65175536	-45.91748561	-85.14624309	-13.00364898	0.00000156	0	0	0
0.41695736	49.54227557	1706.657894	176.515388	14.79117432	463.791487	1192.871461	1240.924437	9386.935244	0	0	0	0	0	0	-129.3790439	129.3790439	0	0	0	0	0	0	0	0	0	0	0	0
0.42537685	49.2919842	1850.105383	156.4747232	14.46333712	546.6122488	1129.612834	1271.092114	9617.493641	0	0	0	0	0	0	-132.5762062	132.5762062	0	0	0	0	0	0	0	0	0	0	0	0
0.42647281	49.25620168	1869.011326	154.1171749	14.43001775	557.7330137	1166.998846	1274.911216	9644.8482	0	0	0	0	0	0	-132.9592247	132.9592247	0	0	0	0	0	0	0	0	0	0	0	0
0.42918094	49.17615197	1915.863177	148.5037066	14.35479929	585.4344829	1183.727851	1284.195852	9709.93332	0	0	0	0	0	0	-133.8743764	133.8743764	0	0	0	0	0	0	0	0	0	0	0	0
0.4342855	49.05916422	2004.315888	138.7102937	14.2345738	638.2723606	1186.720472	1301.045849	9823.271127	0	0	0	0	0	0	-135.4840431	135.4840431	0	0	0	0	0	0	0	0	0	0	0	0
0.44176606	48.97404526	2133.488297	126.0089056	14.10847616	716.3083034	1093.69636	1323.961603	9969.218808	0	0	0	0	0	0	-137.5974576	137.5974576	0	0	0	0	0	0	0	0	0	0	0	0
0.44268234	48.97025106	2149.20767	124.5789355	14.09404419	725.8681645	1149.65367	1326.611714	9985.593742	0	0	0	0	0	0	-137.8383323	137.8383323	0	0	0	0	0	0	0	0	0	0	0	0
0.44474922	48.9678911	2184.628556	121.4366365	14.06628745	747.4047768	1171.315131	1332.451742	10021.43405	0	0	0	0	0	0	-138.3684651	138.3684651	0	0	0	0	0	0	0	0	0	0	0	0
0.44921581	48.98805185	2260.793159	115.0431967	14.02170195	793.7816335	1177.40374	1344.426929	10093.96215	0	0	0	0	0	0	-139.4559274	139.4559274	0	0	0	0	0	0	0	0	0	0	0	0
0.45545039	49.07122788	2366.068637	106.9514394	13.98973225	858.0220342	1151.636991	1359.634958	10185.11413	0	0	0	0	0	0	-140.8565183	140.8565183	0	0	0	0	0	0	0	0	0	0	0	0
0.4591677	49.14931714	2428.16992	102.5462343	13.98242631	896.1703065	1170.486265	1367.854898	10234.57349	0	0	0	0	0	0	-141.6358113	141.6358113	0	0	0	0	0	0	0	0	0	0	0	0
0.46380079	49.27590957	2504.873768	97.44581671	13.98993554	943.834835	1162.679968	1377.201905	10291.81203	0	0	0	0	0	0	-142.5577949	142.5577949	0	0	0	0	0	0	0	0	0	0	0	0
0.47127384	49.54285724	2626.788518	90.0462932	14.03874065	1021.651359	1184.955077	1390.192463	10375.4157	0	0	0	0	0	0	-143.9499371	143.9499371	0	0	0	0	0	0	0	0	0	0	0	0
0.47234421	49.58762178	2644.076763	89.06162109	14.04749746	1032.924401	1167.722015	1391.840845	10386.63773	0	0	0	0	0	0	-144.1412592	144.1412592	0	0	0	0	0	0	0	0	0	0	0	0
0.47576605	49.74008064	2698.995609	86.03465893	14.08253084	1069.19076	1155.997354	1396.761881	10421.41005	0	0	0	0	0	0	-144.7415158	144.7415158	0	0	0	0	0	0	0	0	0	0	0	0
0.48159601	50.03352616	2791.384593	81.26883322	14.16509904	1131.621669	1152.189053	1403.917272	10477.28307	0	0	0	0	0	0	-145.729958	145.729958	0	0	0	0	0	0	0	0	0	0	0	0
0.49537	50.8827047	3003.570176	71.70714104	14.59264044	1279.389136	1163.664459	1414.73011	10597.0897	0	0	0	0	0	0	-147.949332	147.949332	0	0	0	0	0	0	0	0	0	0	0	0
0.49704014	51.00147652	3028.714701	70.68936766	14.58240765	1297.053699	1149.120606	1415.463739	10610.80638	0	0	0	0	0	0	-148.2101328	148.2101328	0	0	0	0	0	0	0	0	0	0	0	0
0.5027422	51.42574647	3111.022062	67.42088023	14.68815642	1356.615662	1103.25128	1417.047169	10656.76894	0	0	0	0	0	0	-149.0951772	149.0951772	0	0	0	0	0	0	0	0	0	0	0	0
0.50475568	51.58241237	3133.98554	66.3396444	14.74878136	1376.8057	1133.710586	1417.269842	10672.60698	0	0	0	0	0	0	-149.4041468	149.4041468	0	0	0	0	0	0	0	0	0	0	0	0
